<?xml version="1.0" encoding="utf-8"?>
<!-- Generator: Adobe Illustrator 21.0.2, SVG Export Plug-In . SVG Version: 6.00 Build 0)  -->
<svg version="1.1" id="Слой_1" xmlns="http://www.w3.org/2000/svg" xmlns:xlink="http://www.w3.org/1999/xlink" x="0px" y="0px"
	 viewBox="0 0 192.6 51.6" style="enable-background:new 0 0 192.6 51.6;" xml:space="preserve">
<style type="text/css">
	.st0{fill:#5B5B5B;}
	.st1{fill-rule:evenodd;clip-rule:evenodd;fill:#FFE0A1;}
	.st2{fill-rule:evenodd;clip-rule:evenodd;fill:#F8931F;}
	.st3{fill-rule:evenodd;clip-rule:evenodd;fill:#FE0000;}
</style>
<g>
	<path class="st0" d="M180.2,15c0.4,2.3,1.8,4.1,4.9,4.1c2.1,0,4.5-1.8,4.6-4.1h-3.2c-0.1,0.9-0.8,1.3-1.5,1.3
		c-0.7,0-1.3-0.3-1.5-1.3H180.2z M180.2,37.3l8.5-10.7v10.7h3.9V19.8h-3.2l-8.5,10.7V19.8H177v17.5H180.2z M160.7,37.3h13.6v-3.6
		h-9.7v-3.5h8.9v-3.5h-8.9v-3.2h9.5v-3.6h-13.4V37.3z M143.8,23.4h5.6v13.9h3.9V23.4h5.6v-3.6h-15.1V23.4z M129.1,37.3h13.6v-3.6
		h-9.7v-3.5h8.9v-3.5h-8.9v-3.2h9.5v-3.6h-13.4V37.3z M107.6,37.3h3.9V26.7l4.7,7h1l4.5-7v10.5h3.9V19.8h-3.5l-5.3,8.4l-5.6-8.4
		h-3.6V37.3z M91.1,28.5c0-3.2,2.3-5.3,5-5.3c2.5,0,5,2,5,5.3c0,3.2-2.2,5.3-5,5.3C93.5,33.8,91.1,31.8,91.1,28.5z M87.1,28.5
		c0,5.2,4,9,9,9c5,0,9-3.9,9-9c0-5.2-4-9-9-9C91,19.5,87.1,23.5,87.1,28.5z M78.4,23.4c2.4,0,3.3,1,3.3,2.4c0,1.5-1,2.4-3.4,2.4
		h-3.3v-4.7H78.4z M74.9,37.3v-5.5h3.4c5.5,0,7.4-3,7.4-6c0-2.9-1.5-6-7.4-6H71v17.5H74.9z M63.8,37.3h3.9V19.8H52.1v17.5H56V23.4
		h7.7V37.3z"/>
	<path class="st0" d="M190.7,44.1c-0.4,0-0.7-0.2-0.7-0.5c0-0.4,0.2-0.5,0.7-0.5h0.9v1.1H190.7z M191.7,46.4h0.9v-4.3h-1.8
		c-1.2,0-1.8,0.6-1.8,1.4c0,0.6,0.3,1.1,0.9,1.2l-1.3,1.6h1.1L191,45h0.7V46.4z M182.7,46.4l2.1-2.6v2.6h0.9v-4.3h-0.8l-2.1,2.6
		v-2.6h-0.9v4.3H182.7z M177.5,46.4h0.9v-4.3h-0.9v1.7h-1.9v-1.7h-0.9v4.3h0.9v-1.7h1.9V46.4z M169.3,43.5l0.5,1.3h-1.1L169.3,43.5z
		 M167.1,46.4h1l0.3-0.8h1.8l0.3,0.8h1l-1.9-4.3H169L167.1,46.4z M163.1,46.4h0.9v-4.3h-3.8v4.3h0.9V43h1.9V46.4z M152.4,46.4h0.9
		v-2.6l1.1,1.7h0.2l1.1-1.7v2.6h0.9v-4.3H156l-1.3,2l-1.4-2h-0.9V46.4z M145.8,44.3c0-0.8,0.6-1.3,1.2-1.3c0.6,0,1.2,0.5,1.2,1.3
		c0,0.8-0.5,1.3-1.2,1.3C146.3,45.5,145.8,45.1,145.8,44.3z M144.8,44.3c0,1.3,1,2.2,2.2,2.2c1.2,0,2.2-0.9,2.2-2.2
		c0-1.3-1-2.2-2.2-2.2C145.8,42.1,144.8,43,144.8,44.3z M138.3,46.4h0.9v-1.7h0.4l1.4,1.7h1.2l-1.8-2.2l1.7-2H141l-1.4,1.7h-0.3
		v-1.7h-0.9V46.4z M130.1,44.1c-0.4,0-0.7-0.2-0.7-0.5c0-0.4,0.2-0.5,0.7-0.5h0.9v1.1H130.1z M131,46.4h0.9v-4.3h-1.8
		c-1.2,0-1.8,0.6-1.8,1.4c0,0.6,0.3,1.1,0.9,1.2l-1.3,1.6h1.1l1.1-1.4h0.7V46.4z M123.2,43.5l0.5,1.3h-1.1L123.2,43.5z M121,46.4h1
		l0.3-0.8h1.8l0.3,0.8h1l-1.9-4.3h-0.7L121,46.4z M117,46.4h0.9v-4.3H117v1.7h-1.9v-1.7h-0.9v4.3h0.9v-1.7h1.9V46.4z M108.4,42.1
		h-0.9v4.3h1.7c1.1,0,1.8-0.5,1.8-1.4c0-0.9-0.6-1.4-1.8-1.4h-0.8V42.1z M109.2,44.4c0.5,0,0.8,0.2,0.8,0.5c0,0.4-0.3,0.6-0.8,0.6
		h-0.8v-1.1H109.2z M103.1,46.4h0.9v-4.3h-3.2l0,0.5c0,2.7-0.2,3-0.9,2.9v0.9c0.1,0,0.2,0,0.2,0c0.9,0,1.4-0.2,1.5-2.9l0-0.5h1.3
		V46.4z M93.7,46.4h3.3v-0.9h-2.4v-0.9h2.2v-0.9h-2.2V43H97v-0.9h-3.3V46.4z M87,43h1.4v3.4h0.9V43h1.4v-0.9H87V43z M80.9,46.4
		l2.1-2.6v2.6h0.9v-4.3h-0.8l-2.1,2.6v-2.6h-0.9v4.3H80.9z M73.4,44.3c0-0.8,0.6-1.3,1.2-1.3c0.6,0,1.2,0.5,1.2,1.3
		c0,0.8-0.5,1.3-1.2,1.3C74,45.5,73.4,45.1,73.4,44.3z M72.5,44.3c0,1.3,1,2.2,2.2,2.2c1.2,0,2.2-0.9,2.2-2.2c0-1.3-1-2.2-2.2-2.2
		C73.4,42.1,72.5,43,72.5,44.3z M67.7,43c0.6,0,0.8,0.2,0.8,0.6c0,0.4-0.2,0.6-0.8,0.6h-0.8V43H67.7z M66.8,46.4v-1.3h0.8
		c1.3,0,1.8-0.7,1.8-1.5c0-0.7-0.4-1.5-1.8-1.5h-1.8v4.3H66.8z M59.2,43h1.4v3.4h0.9V43h1.4v-0.9h-3.7V43z M55.5,44.8
		c-0.2,0.5-0.7,0.7-1.1,0.7c-0.7,0-1.3-0.5-1.3-1.3c0-0.8,0.5-1.3,1.3-1.3c0.5,0,0.9,0.3,1.1,0.7l0.8-0.4c-0.2-0.8-1-1.2-1.9-1.2
		c-1.3,0-2.2,1-2.2,2.2c0,1.3,0.9,2.2,2.2,2.2c0.9,0,1.7-0.4,2-1.3L55.5,44.8z"/>
	<path class="st1" d="M3.4,43.4c1.3,1.8,3.6,4.1,5.9,5.6c1.1,0.7,2.5,1.5,3.9,1.7c-0.1-0.1-0.2-0.3-0.3-0.4
		c-0.2-0.3-0.5-0.5-0.7-0.8C10.7,48,9.6,46.2,9,44.1c-0.5-1.6-0.4-3.1-0.2-4.7c0.5-2.6,2-5.4,3.5-8c0.6-1,1.2-2,1.8-3
		c0.3-0.5,0.7-1.2,1-1.7c1.9-3.4,3.3-7.3,3.4-11.4c0.2-4.8-1.2-9.7-4.7-13.1c-0.4-0.4-2.5-2.2-3.1-2.3l0.9,2.5c0.8,3,1,5.7,0.1,8.6
		c-1.7,5.3-6.4,9.3-9.5,14c-1,1.6-1.6,3.2-1.9,4.8c-0.6,3.1-0.2,6.4,1,9.4C1.8,40.7,2.5,42.1,3.4,43.4"/>
	<path class="st2" d="M19,51.6c-0.2-0.7-0.8-1.4-0.8-3.2c0-5.6,7.1-11.2,9.8-17.6c1.7-4,2.3-9.3,0.6-13.9c-1-2.6-2.2-4.6-4.1-6.6
		c-0.3-0.3-0.6-0.6-1-1c-0.2-0.2-0.6-0.5-0.9-0.7c-0.1-0.1-0.2-0.1-0.2-0.1c0.7,7-0.1,13.1-3.6,19c-2.5,4.2-8.2,9.5-8.4,14.7
		c-0.1,3.3,1.7,6.6,4.4,8.3C16.3,51.4,18.7,51.7,19,51.6"/>
	<path class="st3" d="M34,23.9c0,0.9-0.7,3.9-0.9,4.5c-2.1,8.6-11.3,13.9-13.2,18.8c-0.7,1.7-0.4,2.6,0.3,4.2
		c1.2-0.1,2.9-0.7,4.3-1.3C33.7,45.9,39.6,32.3,34,23.9"/>
</g>
</svg>
