<?xml version="1.0" encoding="utf-8"?>
<!-- Generator: Adobe Illustrator 21.0.2, SVG Export Plug-In . SVG Version: 6.00 Build 0)  -->
<svg version="1.1" id="Слой_1" xmlns="http://www.w3.org/2000/svg" xmlns:xlink="http://www.w3.org/1999/xlink" x="0px" y="0px"
	 viewBox="0 0 66 66" style="enable-background:new 0 0 66 66;" xml:space="preserve">
<style type="text/css">
	.st0{fill:#3E4E68;}
	.st1{fill:#FFFFFF;}
</style>
<polygon class="st0" points="52.1,66 0,66 0,0 66,0 66,52.2 "/>
<g>
	<rect x="24.1" y="14.6" class="st1" width="3.6" height="36.9"/>
	<rect x="38.4" y="14.5" class="st1" width="3.6" height="36.9"/>
	<rect x="42.4" y="40.5" class="st1" width="3.5" height="4.2"/>
	<rect x="42.2" y="30.5" class="st1" width="3.7" height="4.4"/>
	<rect x="42.4" y="21.8" class="st1" width="3.5" height="4"/>
	<rect x="20.2" y="21.6" class="st1" width="3.5" height="3.9"/>
	<rect x="20.2" y="31" class="st1" width="3.7" height="4.4"/>
	<rect x="20.3" y="40" class="st1" width="3.7" height="4.4"/>
	<g>
		<path class="st1" d="M29,20.9v5.8l17.2,0l0-5.8L29,20.9z M44.2,25.5c-0.9,0-1.6-0.7-1.6-1.6s0.7-1.6,1.6-1.6
			c0.9,0,1.6,0.7,1.6,1.6S45,25.5,44.2,25.5z"/>
		<path class="st1" d="M27.7,20.9l-7.9,0l0,5.8l7.9,0V20.9z M22,25.4c-0.9,0-1.6-0.7-1.6-1.6s0.7-1.6,1.6-1.6c0.9,0,1.6,0.7,1.6,1.6
			S22.9,25.4,22,25.4z"/>
	</g>
	<g>
		<path class="st1" d="M29,29.8v5.8l17.2,0l0-5.8L29,29.8z M44.2,34.6c-0.9,0-1.6-0.7-1.6-1.6s0.7-1.6,1.6-1.6
			c0.9,0,1.6,0.7,1.6,1.6S45,34.6,44.2,34.6z"/>
		<path class="st1" d="M27.7,29.8l-7.9,0l0,5.8l7.9,0V29.8z M22,34.4c-0.9,0-1.6-0.7-1.6-1.6c0-0.9,0.7-1.6,1.6-1.6
			c0.9,0,1.6,0.7,1.6,1.6C23.6,33.7,22.9,34.4,22,34.4z"/>
	</g>
	<g>
		<path class="st1" d="M29,39.5v5.8l17.2,0l0-5.8L29,39.5z M44.2,44.1c-0.9,0-1.6-0.7-1.6-1.6c0-0.9,0.7-1.6,1.6-1.6
			c0.9,0,1.6,0.7,1.6,1.6C45.8,43.4,45.1,44.1,44.2,44.1z"/>
		<path class="st1" d="M27.7,39.5l-7.8,0l0,5.8l7.8,0V39.5z M22.1,44c-0.9,0-1.6-0.7-1.6-1.6c0-0.9,0.7-1.6,1.6-1.6
			c0.9,0,1.6,0.7,1.6,1.6C23.6,43.3,22.9,44,22.1,44z"/>
	</g>
</g>
</svg>
