<?xml version="1.0" encoding="utf-8"?>
<!-- Generator: Adobe Illustrator 21.0.2, SVG Export Plug-In . SVG Version: 6.00 Build 0)  -->
<svg version="1.1" id="Слой_1" xmlns="http://www.w3.org/2000/svg" xmlns:xlink="http://www.w3.org/1999/xlink" x="0px" y="0px"
	 viewBox="0 0 66 66" style="enable-background:new 0 0 66 66;" xml:space="preserve">
<style type="text/css">
	.st0{fill:#3E4E68;}
	.st1{fill:#FFFFFF;}
</style>
<polygon class="st0" points="52.1,66 0,66 0,0 66,0 66,52.2 "/>
<g>
	<g>
		<path class="st1" d="M47.8,30L34.2,15.6C33.8,15.2,33.4,15,33,15c-0.4,0-0.8,0.2-1.2,0.6l-5.5,5.8v-0.9c0-0.6-0.8-1.2-1.9-1.2H24
			c-1,0-1.9,0.6-1.9,1.2v4.9c0,0.1,0,0.2,0.1,0.4L18.2,30c-0.6,0.6-0.6,1.4-0.2,1.8l0.2,0.2c0.5,0.4,1.2,0.3,1.8-0.3l0.6-0.6v19
			c0,0.6,0.5,0.9,0.9,0.9h8.7V38.2c0-0.6,0.5-1.1,1.1-1.1h3.5c0.6,0,1.1,0.5,1.1,1.1v12.7h8.7c0.6,0,0.9-0.5,0.9-0.9V31.2l0.5,0.5
			c0.6,0.6,1.3,0.7,1.8,0.3l0.2-0.2C48.5,31.4,48.4,30.6,47.8,30z"/>
	</g>
</g>
</svg>
