<?xml version="1.0" encoding="utf-8"?>
<!-- Generator: Adobe Illustrator 21.0.2, SVG Export Plug-In . SVG Version: 6.00 Build 0)  -->
<svg version="1.1" id="Слой_1" xmlns="http://www.w3.org/2000/svg" xmlns:xlink="http://www.w3.org/1999/xlink" x="0px" y="0px"
	 viewBox="0 0 66 66" style="enable-background:new 0 0 66 66;" xml:space="preserve">
<style type="text/css">
	.st0{fill:#3E4E68;}
	.st1{fill:#FFFFFF;}
</style>
<polygon class="st0" points="52.1,66 0,66 0,0 66,0 66,52.2 "/>
<g>
	<g>
		<path class="st1" d="M41.8,33V22.4c0-1.4-0.5-2.6-1.5-3.6c-1-1-2.2-1.4-3.5-1.4H26v-1.9h-3.8v12.4H26v-1.9h7V33h-1.9v3.7h12.7V33
			H41.8z"/>
		<path class="st1" d="M40.9,47.1c0-0.6-0.3-1.4-0.9-2.6c-0.6-1.2-1.2-2.3-1.8-3.2l-0.9-1.4c-2.3,3.5-3.4,5.9-3.4,7.2
			c0,0.9,0.3,1.7,1,2.4c0.7,0.7,1.5,1,2.5,1c1,0,1.8-0.3,2.5-1S40.9,48,40.9,47.1z"/>
	</g>
</g>
</svg>
