<?xml version="1.0" encoding="utf-8"?>
<!-- Generator: Adobe Illustrator 21.0.2, SVG Export Plug-In . SVG Version: 6.00 Build 0)  -->
<svg version="1.1" id="Слой_1" xmlns="http://www.w3.org/2000/svg" xmlns:xlink="http://www.w3.org/1999/xlink" x="0px" y="0px"
	 viewBox="0 0 66 66" style="enable-background:new 0 0 66 66;" xml:space="preserve">
<style type="text/css">
	.st0{fill:#3E4E68;}
	.st1{fill:#FFFFFF;}
</style>
<polygon class="st0" points="52.1,66 0,66 0,0 66,0 66,52.2 "/>
<path class="st1" d="M50.5,24.3V22h-35v2.3h2.3v3.1h-2.3V44h5.1v-4.6c0-2.7,2.2-4.9,4.9-4.9s4.9,2.2,4.9,4.9l0,4.6h5.1v-4.6
	c0-2.7,2.2-4.9,4.9-4.9s4.9,2.2,4.9,4.9V44h5.1V27.4h-2.3v-3.1H50.5z M31.8,27.4H20.1v-3.1h11.7V27.4z M45.9,27.4H34.2v-3.1h11.7
	V27.4z"/>
</svg>
