<?xml version="1.0" encoding="utf-8"?>
<!-- Generator: Adobe Illustrator 21.0.2, SVG Export Plug-In . SVG Version: 6.00 Build 0)  -->
<svg version="1.1" id="Слой_1" xmlns="http://www.w3.org/2000/svg" xmlns:xlink="http://www.w3.org/1999/xlink" x="0px" y="0px"
	 viewBox="0 0 66 66" style="enable-background:new 0 0 66 66;" xml:space="preserve">
<style type="text/css">
	.st0{fill:#3E4E68;}
	.st1{fill:#FFFFFF;}
</style>
<polygon class="st0" points="52.1,66 0,66 0,0 66,0 66,52.2 "/>
<g>
	<g>
		<path class="st1" d="M41.7,16c-0.1-0.8-0.8-1.5-1.5-1.5h-5.4c0,0,0,0,0,0l0.1,6.9c0,0.2-0.2,0.4-0.4,0.4h-2.9
			c-0.2,0-0.4-0.2-0.4-0.4l0.2-6.9c0,0,0,0,0,0h-5.3c-0.8,0-1.4,0.7-1.6,1.5L20,50c-0.1,0.8,0.8,1.5,1.9,1.5h8.4c0,0,0-0.1,0-0.1
			l0.2-7.2c0-0.2,0.2-0.4,0.5-0.4h3.8c0.3,0,0.5,0.2,0.5,0.4l0.1,7.2c0,0,0,0.1,0,0.1H44c1.2,0,2.1-0.7,2-1.5L41.7,16z M31.2,24.5
			c0-0.2,0.2-0.4,0.4-0.4h3c0.2,0,0.4,0.2,0.4,0.4l0.1,6.9c0,0.2-0.2,0.4-0.4,0.4h-3.3c-0.2,0-0.4-0.2-0.4-0.4L31.2,24.5z
			 M34.8,41.6h-3.7c-0.3,0-0.5-0.2-0.5-0.4l0.2-6.9c0-0.2,0.2-0.4,0.5-0.4h3.4c0.2,0,0.4,0.2,0.4,0.4l0.1,6.9
			C35.3,41.4,35.1,41.6,34.8,41.6z"/>
	</g>
</g>
</svg>
