<?xml version="1.0" encoding="utf-8"?>
<!-- Generator: Adobe Illustrator 21.0.2, SVG Export Plug-In . SVG Version: 6.00 Build 0)  -->
<svg version="1.1" id="Слой_1" xmlns="http://www.w3.org/2000/svg" xmlns:xlink="http://www.w3.org/1999/xlink" x="0px" y="0px"
	 viewBox="0 0 66 66" style="enable-background:new 0 0 66 66;" xml:space="preserve">
<style type="text/css">
	.st0{fill:#3E4E68;}
	.st1{fill:#FFFFFF;}
</style>
<polygon class="st0" points="52.1,66 0,66 0,0 66,0 66,52.2 "/>
<path id="XMLID_530_" class="st1" d="M42,27.7c-0.3-0.4-0.7-0.7-1.2-0.7h-6.4l3.4-10.7c0.1-0.4,0.1-0.9-0.2-1.2
	c-0.3-0.4-0.7-0.6-1.1-0.6h-6.3c-0.6,0-1.1,0.4-1.3,1l-5.1,16c-0.1,0.4-0.1,0.9,0.2,1.2c0.3,0.4,0.7,0.6,1.1,0.6h1.1h5.1l-1.6,17.6
	c0,0.3,0.2,0.5,0.4,0.6c0.3,0.1,0.6,0,0.7-0.3L42.1,29C42.3,28.6,42.3,28.1,42,27.7z"/>
</svg>
