<?xml version="1.0" encoding="utf-8"?>
<!-- Generator: Adobe Illustrator 21.0.2, SVG Export Plug-In . SVG Version: 6.00 Build 0)  -->
<svg version="1.1" id="Слой_1" xmlns="http://www.w3.org/2000/svg" xmlns:xlink="http://www.w3.org/1999/xlink" x="0px" y="0px"
	 viewBox="0 0 66 66" style="enable-background:new 0 0 66 66;" xml:space="preserve">
<style type="text/css">
	.st0{fill:#3E4E68;}
	.st1{fill:#FFFFFF;}
</style>
<polygon class="st0" points="52.1,66 0,66 0,0 66,0 66,52.2 "/>
<g>
	<g>
		<g>
			<polygon class="st1" points="42,16.5 39,19.5 41.5,22 29,34.4 31.6,37 44,24.5 46.5,27 49.5,24 			"/>
		</g>
	</g>
	<g>
		<g>
			<path class="st1" d="M30.2,38.4L25.6,43L23,40.4l4.6-4.6l-3.7-3.7l-5.3,5.3c-2.8,2.8-2.8,7.2,0,10c1.4,1.4,3.2,2.1,5,2.1
				s3.6-0.7,5-2.1l5.3-5.3L30.2,38.4z"/>
		</g>
	</g>
</g>
</svg>
