<?xml version="1.0" encoding="utf-8"?>
<!-- Generator: Adobe Illustrator 21.0.2, SVG Export Plug-In . SVG Version: 6.00 Build 0)  -->
<svg version="1.1" id="Слой_1" xmlns="http://www.w3.org/2000/svg" xmlns:xlink="http://www.w3.org/1999/xlink" x="0px" y="0px"
	 viewBox="0 0 66 66" style="enable-background:new 0 0 66 66;" xml:space="preserve">
<style type="text/css">
	.st0{fill:#3E4E68;}
	.st1{fill:#FFFFFF;}
</style>
<polygon class="st0" points="52.1,66 0,66 0,0 66,0 66,52.2 "/>
<path class="st1" d="M49.5,25.3c0,0.6-0.5,1.2-1.2,1.2h-1.9c-0.5,1.3-1.7,2.2-3.2,2.2h-2.2c-0.2,0.2-0.5,0.3-0.8,0.3H39
	c-0.3,1-1,1.9-1.9,2.5l-1.7,1.1c-0.7,0.5-1.5,0.7-2.3,0.7h-6.2c0,0.3,0,0.5,0,0.8c0,0.5,0.2,1,0.3,1.2c0.2,0.4,0.1,0.9-0.1,1.3
	c-0.2,0.4-0.6,0.7-1,0.8l-0.6,0.1c-0.2,0.3-0.4,0.6-0.8,0.6l-0.2,0c0,0.7,0,1.7,0.1,2.5c0.1,1.2,0.2,3.3-2.4,3.9
	c-0.4,0.1-0.8,0.1-1.3,0.1c-1.4,0-3.2-0.5-3.9-1.8c-0.6-1.1-0.6-2.2-0.6-6.7l0-1c0-3.8,1.3-7,2-8.6h11.8c0.6,0,1.2-0.5,1.2-1.2
	s-0.5-1.2-1.2-1.2H18.6c0-0.2,0-0.3,0-0.5c0-1,0.6-1.9,1.5-2.3l0.5-0.2c0.3-0.1,0.6-0.2,0.9-0.2h16.6c0.4,0,0.7,0.2,0.9,0.4h1.2
	c0.3,0,0.6,0.1,0.8,0.3h2.2c1.4,0,2.7,0.9,3.2,2.2h1.9C49,24.2,49.5,24.7,49.5,25.3z"/>
</svg>
