<?xml version="1.0" encoding="utf-8"?>
<!-- Generator: Adobe Illustrator 21.0.2, SVG Export Plug-In . SVG Version: 6.00 Build 0)  -->
<svg version="1.1" id="Слой_1" xmlns="http://www.w3.org/2000/svg" xmlns:xlink="http://www.w3.org/1999/xlink" x="0px" y="0px"
	 viewBox="0 0 66 66" style="enable-background:new 0 0 66 66;" xml:space="preserve">
<style type="text/css">
	.st0{fill:#3E4E68;}
	.st1{fill:#FFFFFF;}
</style>
<polygon class="st0" points="52.1,66 0,66 0,0 66,0 66,52.2 "/>
<g>
	<g>
		<g>
			<path class="st1" d="M29.5,28v-2.8h-2.2V28c-1.6,0.5-2.7,1.9-2.7,3.7c0,2.1,1.7,3.8,3.8,3.8s3.8-1.7,3.8-3.8
				C32.2,29.9,31.1,28.5,29.5,28z M28.4,33.3c-0.9,0-1.6-0.7-1.6-1.6c0-0.9,0.7-1.6,1.6-1.6c0.9,0,1.6,0.7,1.6,1.6
				C30,32.6,29.3,33.3,28.4,33.3z"/>
		</g>
	</g>
	<g>
		<g>
			<path class="st1" d="M38.7,28v-2.8h-2.2V28c-1.6,0.5-2.7,1.9-2.7,3.7c0,2.1,1.7,3.8,3.8,3.8s3.8-1.7,3.8-3.8
				C41.5,29.9,40.3,28.5,38.7,28z M37.6,33.3c-0.9,0-1.6-0.7-1.6-1.6c0-0.9,0.7-1.6,1.6-1.6c0.9,0,1.6,0.7,1.6,1.6
				C39.3,32.6,38.5,33.3,37.6,33.3z"/>
		</g>
	</g>
	<g>
		<g>
			<path class="st1" d="M48.4,15.8H45c-0.6,0-1.1,0.5-1.1,1.1v1.5H22.1v-1.5c0-0.6-0.5-1.1-1.1-1.1h-3.4c-0.6,0-1.1,0.5-1.1,1.1
				v32.2c0,0.6,0.5,1.1,1.1,1.1H21c0.6,0,1.1-0.5,1.1-1.1V23h21.8v26.1c0,0.6,0.5,1.1,1.1,1.1h3.4c0.6,0,1.1-0.5,1.1-1.1V16.9
				C49.5,16.3,49,15.8,48.4,15.8z"/>
		</g>
	</g>
</g>
</svg>
