<?xml version="1.0" encoding="utf-8"?>
<!-- Generator: Adobe Illustrator 21.0.2, SVG Export Plug-In . SVG Version: 6.00 Build 0)  -->
<svg version="1.1" id="Слой_1" xmlns="http://www.w3.org/2000/svg" xmlns:xlink="http://www.w3.org/1999/xlink" x="0px" y="0px"
	 viewBox="0 0 66 66" style="enable-background:new 0 0 66 66;" xml:space="preserve">
<style type="text/css">
	.st0{fill:#3E4E68;}
	.st1{fill:#FFFFFF;}
</style>
<polygon class="st0" points="52.1,66 0,66 0,0 66,0 66,52.2 "/>
<g>
	<g>
		<g>
			<path class="st1" d="M48.9,39.8h-1.1c-0.3,0-0.6-0.2-0.6-0.6v-2c0-2.7-0.7-5.2-2-7.4l-6.9,2.5c-0.1,0-0.1,0-0.2,0
				c-0.1,0-0.3-0.1-0.4-0.2c-0.2-0.2-0.2-0.4-0.1-0.6l2.3-7.1c-0.7-0.4-1.5-0.8-2.3-1.1v-0.2c0-0.9-0.8-1.7-1.7-1.7h-2.3v8
				c0,0.3-0.3,0.6-0.6,0.6s-0.6-0.3-0.6-0.6v-8h-2.3c-0.9,0-1.7,0.8-1.7,1.7v0.2c-0.9,0.3-1.7,0.7-2.5,1.1l2.4,7.1
				c0.1,0.2,0,0.4-0.1,0.6c-0.1,0.1-0.3,0.2-0.4,0.2c-0.1,0-0.1,0-0.2,0L20.6,30c-1.2,2.1-1.8,4.5-1.8,6.9v2.3
				c0,0.3-0.2,0.6-0.6,0.6h-1.1c-0.3,0-0.6,0.3-0.6,0.6v3.4c0,0.3,0.3,0.6,0.6,0.6h31.9c0.3,0,0.6-0.3,0.6-0.6v-3.4
				C49.5,40.1,49.2,39.8,48.9,39.8z M42.7,41H23.3c-0.3,0-0.6-0.3-0.6-0.6s0.3-0.6,0.6-0.6h19.3c0.3,0,0.6,0.3,0.6,0.6
				S43,41,42.7,41z"/>
			<path class="st1" d="M25,25.2c-1.5,1-2.8,2.3-3.8,3.8L27,31L25,25.2z"/>
			<path class="st1" d="M44.6,28.9c-1-1.4-2.3-2.7-3.7-3.7L39,30.9L44.6,28.9z"/>
		</g>
	</g>
</g>
</svg>
