<?xml version="1.0" encoding="utf-8"?>
<!-- Generator: Adobe Illustrator 21.0.2, SVG Export Plug-In . SVG Version: 6.00 Build 0)  -->
<svg version="1.1" id="Слой_1" xmlns="http://www.w3.org/2000/svg" xmlns:xlink="http://www.w3.org/1999/xlink" x="0px" y="0px"
	 viewBox="0 0 66 66" style="enable-background:new 0 0 66 66;" xml:space="preserve">
<style type="text/css">
	.st0{fill:#3E4E68;}
	.st1{fill:#FFFFFF;}
</style>
<polygon class="st0" points="52.1,66 0,66 0,0 66,0 66,52.2 "/>
<g>
	<path class="st1" d="M46.8,33.1c0.7,0,1.3-0.6,1.3-1.3v-1c0-0.7-0.6-1.3-1.3-1.3h-6.5V16c0-0.7-0.6-1.3-1.3-1.3H27.1
		c-0.7,0-1.3,0.6-1.3,1.3v13.5h-2.2V15.8c0-0.7-0.6-1.3-1.3-1.3H19v2.6h1.9v12.4h-1.7c-0.7,0-1.3,0.6-1.3,1.3v1
		c0,0.7,0.6,1.3,1.3,1.3h6.5v7.8h-1.5V35c0-0.7-0.6-1.3-1.3-1.3h-3.7c-0.7,0-1.3,0.6-1.3,1.3v15.2c0,0.7,0.6,1.3,1.3,1.3h3.7
		c0.7,0,1.3-0.6,1.3-1.3v-5.8h17.6v5.8c0,0.7,0.6,1.3,1.3,1.3h3.7c0.7,0,1.3-0.6,1.3-1.3V35c0-0.7-0.6-1.3-1.3-1.3h-3.7
		c-0.7,0-1.3,0.6-1.3,1.3v5.8h-1.5v-7.8H46.8L46.8,33.1z M28.4,35.1c0.3-0.1,0.5-0.2,0.8-0.2c1,0,1.9,0.8,1.9,1.9
		c0,1-0.8,1.9-1.9,1.9c-0.3,0-0.6-0.1-0.8-0.2c-0.6-0.3-1.1-1-1.1-1.7C27.3,36.1,27.8,35.5,28.4,35.1z M37.6,38.5
		c-0.3,0.1-0.5,0.2-0.8,0.2c-1,0-1.9-0.8-1.9-1.9c0-1,0.8-1.9,1.9-1.9c0.3,0,0.6,0.1,0.8,0.2c0.6,0.3,1.1,0.9,1.1,1.7
		C38.7,37.6,38.2,38.2,37.6,38.5z M28.4,17.3h9.2v11.2h-9.2V17.3z"/>
</g>
</svg>
