<?xml version="1.0" encoding="utf-8"?>
<!-- Generator: Adobe Illustrator 21.0.2, SVG Export Plug-In . SVG Version: 6.00 Build 0)  -->
<svg version="1.1" id="Слой_1" xmlns="http://www.w3.org/2000/svg" xmlns:xlink="http://www.w3.org/1999/xlink" x="0px" y="0px"
	 viewBox="0 0 66 66" style="enable-background:new 0 0 66 66;" xml:space="preserve">
<style type="text/css">
	.st0{fill:#3E4E68;}
	.st1{fill:#FFFFFF;}
</style>
<polygon class="st0" points="52.1,66 0,66 0,0 66,0 66,52.2 "/>
<g>
	<g>
		<g>
			<path class="st1" d="M47.3,45.2H36.6c-1.2,0-2.2,1-2.2,2.2v1.1c0,0.6,0.5,1.1,1.1,1.1h12.9c0.6,0,1.1-0.5,1.1-1.1v-1.1
				C49.5,46.2,48.5,45.2,47.3,45.2z"/>
		</g>
	</g>
	<g>
		<g>
			<path class="st1" d="M35.3,17.1c-0.8-0.8-2.2-0.8-3,0L26,23.4c-0.8,0.8-0.8,2.2,0,3c0.8,0.8,2.2,0.8,3,0l6.3-6.3
				C36.1,19.3,36.1,18,35.3,17.1z"/>
		</g>
	</g>
	<g>
		<g>
			<path class="st1" d="M47.5,29.3c-0.8-0.8-2.2-0.8-3,0l-6.3,6.3c-0.8,0.8-0.8,2.2,0,3c0.8,0.8,2.2,0.8,3,0l6.3-6.3
				C48.3,31.5,48.3,30.1,47.5,29.3z"/>
		</g>
	</g>
	<g>
		<g>
			<polygon class="st1" points="36.7,21.8 30.6,27.9 36.7,34 42.8,27.9 			"/>
		</g>
	</g>
	<g>
		<g>
			<path class="st1" d="M29.9,30.2L17.4,42.6c-1.3,1.3-1.3,3.3,0,4.6l0,0c1.3,1.3,3.3,1.2,4.6,0l12.4-12.4L29.9,30.2z"/>
		</g>
	</g>
</g>
</svg>
