<?xml version="1.0" encoding="utf-8"?>
<!-- Generator: Adobe Illustrator 21.0.2, SVG Export Plug-In . SVG Version: 6.00 Build 0)  -->
<svg version="1.1" id="Слой_1" xmlns="http://www.w3.org/2000/svg" xmlns:xlink="http://www.w3.org/1999/xlink" x="0px" y="0px"
	 viewBox="0 0 66 66" style="enable-background:new 0 0 66 66;" xml:space="preserve">
<style type="text/css">
	.st0{fill:#3E4E68;}
	.st1{fill:#FFFFFF;}
</style>
<polygon class="st0" points="52.1,66 0,66 0,0 66,0 66,52.2 "/>
<path class="st1" d="M16.5,48.3c0,0.5,0.3,0.9,0.8,1l3.6,0.4c0,0,0.1,0,0.1,0c0.2,0,0.4-0.1,0.6-0.2c0.2-0.2,0.3-0.4,0.3-0.7
	l-0.1-2.4l2.4,0.1c0.3,0,0.5-0.1,0.7-0.3c0.2-0.2,0.3-0.4,0.3-0.7L25,43.2l2.4,0.1c0.2,0,0.5-0.1,0.7-0.3c0.2-0.2,0.3-0.4,0.3-0.7
	L28.3,40l2.4,0.1c0.3,0,0.5-0.1,0.7-0.3l4.3-4.3c1.2,0.5,2.5,0.8,3.9,0.8c2.7,0,5.2-1,7.1-2.9c3.9-3.9,3.9-10.2,0-14.1
	c-1.9-1.9-4.4-2.9-7.1-2.9c-2.7,0-5.2,1-7.1,2.9c-1.9,1.9-2.9,4.4-2.9,7.1c0,1.4,0.3,2.7,0.8,3.9L17.2,43.3
	c-0.2,0.1-0.2,0.3-0.3,0.6L16.5,48.3z M40.7,21.1c1.1-1.1,2.9-1.1,4,0c1.1,1.1,1.1,2.9,0,4c-1.1,1.1-2.9,1.1-4,0
	C39.6,24,39.6,22.2,40.7,21.1z M20,43.2l11.3-11.3c0.3,0.4,0.5,0.7,0.9,1.1L21,44.2c-0.1,0.1-0.3,0.2-0.5,0.2
	c-0.2,0-0.3-0.1-0.5-0.2C19.7,43.9,19.7,43.5,20,43.2z"/>
</svg>
