<?xml version="1.0" encoding="utf-8"?>
<!-- Generator: Adobe Illustrator 21.0.2, SVG Export Plug-In . SVG Version: 6.00 Build 0)  -->
<svg version="1.1" id="Слой_1" xmlns="http://www.w3.org/2000/svg" xmlns:xlink="http://www.w3.org/1999/xlink" x="0px" y="0px"
	 viewBox="0 0 66 66" style="enable-background:new 0 0 66 66;" xml:space="preserve">
<style type="text/css">
	.st0{fill:#3E4E68;}
	.st1{fill:#FFFFFF;}
</style>
<polygon class="st0" points="52.1,66 0,66 0,0 66,0 66,52.2 "/>
<g>
	<path class="st1" d="M17.7,22.9h12.8c0.7,0,1.2-0.6,1.2-1.2v-3.8c0-0.7-0.6-1.2-1.2-1.2H17.7c-0.7,0-1.2,0.6-1.2,1.2v3.8
		C16.5,22.4,17.1,22.9,17.7,22.9z"/>
	<path class="st1" d="M35.3,22.9h12.8c0.7,0,1.2-0.6,1.2-1.2v-3.8c0-0.7-0.6-1.2-1.2-1.2H35.3c-0.7,0-1.2,0.6-1.2,1.2v3.8
		C34.1,22.4,34.7,22.9,35.3,22.9z"/>
	<path class="st1" d="M39.5,25.5H26.6c-0.7,0-1.2,0.6-1.2,1.2v3.8c0,0.7,0.6,1.2,1.2,1.2h12.8c0.7,0,1.2-0.6,1.2-1.2v-3.8
		C40.7,26,40.1,25.5,39.5,25.5z"/>
	<path class="st1" d="M44.2,25.5c-0.7,0-1.2,0.6-1.2,1.2v3.8c0,0.7,0.6,1.2,1.2,1.2h5.3v-6.2H44.2z"/>
	<path class="st1" d="M16.6,25.5v6.2h5.3c0.7,0,1.2-0.6,1.2-1.2v-3.8c0-0.7-0.6-1.2-1.2-1.2H16.6z"/>
	<path class="st1" d="M39.5,43.1H26.6c-0.7,0-1.2,0.6-1.2,1.2v3.8c0,0.7,0.6,1.2,1.2,1.2h12.8c0.7,0,1.2-0.6,1.2-1.2v-3.8
		C40.7,43.6,40.1,43.1,39.5,43.1z"/>
	<path class="st1" d="M43,44.3v3.8c0,0.7,0.6,1.2,1.2,1.2h5.3v-6.2h-5.3C43.5,43.1,43,43.6,43,44.3z"/>
	<path class="st1" d="M21.9,43.1h-5.3v6.2h5.3c0.7,0,1.2-0.6,1.2-1.2v-3.8C23.1,43.6,22.5,43.1,21.9,43.1z"/>
	<path class="st1" d="M17.7,40.5h12.8c0.7,0,1.2-0.6,1.2-1.2v-3.8c0-0.7-0.6-1.2-1.2-1.2H17.7c-0.7,0-1.2,0.6-1.2,1.2v3.8
		C16.5,40,17.1,40.5,17.7,40.5z"/>
	<path class="st1" d="M34.1,35.5v3.8c0,0.7,0.6,1.2,1.2,1.2h12.8c0.7,0,1.2-0.6,1.2-1.2v-3.8c0-0.7-0.6-1.2-1.2-1.2H35.3
		C34.7,34.3,34.1,34.8,34.1,35.5z"/>
</g>
</svg>
