<?xml version="1.0" encoding="utf-8"?>
<!-- Generator: Adobe Illustrator 21.0.2, SVG Export Plug-In . SVG Version: 6.00 Build 0)  -->
<svg version="1.1" id="Слой_1" xmlns="http://www.w3.org/2000/svg" xmlns:xlink="http://www.w3.org/1999/xlink" x="0px" y="0px"
	 viewBox="0 0 66 66" style="enable-background:new 0 0 66 66;" xml:space="preserve">
<style type="text/css">
	.st0{fill:#3E4E68;}
	.st1{fill:#FFFFFF;}
</style>
<polygon class="st0" points="52.1,66 0,66 0,0 66,0 66,52.2 "/>
<g>
	<path class="st1" d="M37.4,20.5v4.6c1.2,0.5,2.4,1.3,3.4,2.3c2.1,2.1,3.2,4.8,3.2,7.7c0,2.9-1.1,5.7-3.2,7.7
		c-2.1,2.1-4.8,3.2-7.7,3.2s-5.7-1.1-7.7-3.2c-2.1-2.1-3.2-4.8-3.2-7.7c0-2.9,1.1-5.7,3.2-7.7c1-1,2.1-1.8,3.4-2.3v-4.6
		c-6.3,1.9-10.9,7.7-10.9,14.7c0,8.5,6.9,15.3,15.3,15.3c8.5,0,15.3-6.9,15.3-15.3C48.3,28.3,43.7,22.4,37.4,20.5z M30.8,15.5h4.4
		V33h-4.4V15.5z"/>
</g>
</svg>
