<?xml version="1.0" encoding="utf-8"?>
<!-- Generator: Adobe Illustrator 21.0.2, SVG Export Plug-In . SVG Version: 6.00 Build 0)  -->
<svg version="1.1" id="Слой_1" xmlns="http://www.w3.org/2000/svg" xmlns:xlink="http://www.w3.org/1999/xlink" x="0px" y="0px"
	 viewBox="0 0 66 66" style="enable-background:new 0 0 66 66;" xml:space="preserve">
<style type="text/css">
	.st0{fill:#3E4E68;}
	.st1{fill:#FFFFFF;}
</style>
<polygon class="st0" points="52.1,66 0,66 0,0 66,0 66,52.2 "/>
<g>
	<g>
		<path class="st1" d="M46.5,46.6h-7.4c-3.6,0-6.6-3-6.6-6.6v-0.3h3.5c0.7,0,1.2-0.5,1.2-1.2v-5.7c1.9-1.3,3.2-3.5,3.2-6v-5.2
			c0-0.7-0.5-1.2-1.2-1.2h-2.5v-4.2c0-0.7-0.5-1.2-1.2-1.2S34,15.6,34,16.3v4.2h-5.5v-4.2c0-0.7-0.5-1.2-1.2-1.2
			c-0.7,0-1.2,0.5-1.2,1.2v4.2h-2.5c-0.7,0-1.2,0.5-1.2,1.2v5.2c0,2.5,1.2,4.7,3.1,6v5.8c0,0.7,0.5,1.2,1.2,1.2h3.5V40
			c0,5,4,9.1,9,9.1h7.4c0.7,0,1.2-0.5,1.2-1.2S47.2,46.6,46.5,46.6z"/>
	</g>
</g>
</svg>
