<?xml version="1.0" encoding="utf-8"?>
<!-- Generator: Adobe Illustrator 21.0.2, SVG Export Plug-In . SVG Version: 6.00 Build 0)  -->
<svg version="1.1" id="Слой_1" xmlns="http://www.w3.org/2000/svg" xmlns:xlink="http://www.w3.org/1999/xlink" x="0px" y="0px"
	 viewBox="0 0 66 66" style="enable-background:new 0 0 66 66;" xml:space="preserve">
<style type="text/css">
	.st0{fill:#3E4E68;}
	.st1{fill:#FFFFFF;}
</style>
<polygon class="st0" points="52.1,66 0,66 0,0 66,0 66,52.2 "/>
<g>
	<g>
		<path class="st1" d="M28.2,33c0-0.3,0-0.6,0.1-0.8l0,0c-4.3,0.4-5.6-4-9.7-3.3C13.9,29.7,14,43.4,23,43.8c6,0.3,8.3-4.2,8.8-6
			C29.7,37.2,28.2,35.3,28.2,33z"/>
		<path class="st1" d="M44,22.4c1.6-4.5-10.2-11.3-15.1-3.7c-3.2,5-0.5,9.3,0.8,10.6l0,0c0.9-0.9,2.1-1.4,3.5-1.4
			c1.2,0,2.3,0.4,3.2,1.1C38.2,25.3,42.6,26.3,44,22.4z"/>
		<path class="st1" d="M36.9,47.7c3,3.7,14.9-3.2,10.7-11.2c-2.7-5.3-7.8-5.1-9.6-4.6c0.1,0.4,0.1,0.8,0.1,1.2c0,2.1-1.3,4-3.2,4.7
			C37.4,41.2,34.2,44.5,36.9,47.7z"/>
	</g>
	<circle class="st1" cx="33.2" cy="33" r="2.4"/>
</g>
</svg>
